<mxfile host="app.diagrams.net" agent="Mozilla/5.0 (Windows NT 10.0; Win64; x64) AppleWebKit/537.36 (KHTML, like Gecko) Chrome/131.0.0.0 Safari/537.36" version="24.8.3">
  <diagram name="Page-1" id="74b105a0-9070-1c63-61bc-23e55f88626e">
    <mxGraphModel dx="1838" dy="765" grid="1" gridSize="10" guides="1" tooltips="1" connect="1" arrows="1" fold="1" page="1" pageScale="1.5" pageWidth="1169" pageHeight="826" background="none" math="0" shadow="0">
      <root>
        <mxCell id="0" style=";html=1;" />
        <mxCell id="1" style=";html=1;" parent="0" />
        <mxCell id="ezZVJ3xT8r4Y3w5elAx9-3" value="" style="dashed=0;outlineConnect=0;html=1;align=center;labelPosition=center;verticalLabelPosition=bottom;verticalAlign=top;shape=mxgraph.webicons.mongodb;gradientColor=#DFDEDE" vertex="1" parent="1">
          <mxGeometry x="660" y="240" width="120" height="160" as="geometry" />
        </mxCell>
        <mxCell id="ezZVJ3xT8r4Y3w5elAx9-5" value="&lt;font style=&quot;font-size: 18px;&quot;&gt;Staging DB&lt;/font&gt;" style="text;html=1;align=center;verticalAlign=middle;whiteSpace=wrap;rounded=0;" vertex="1" parent="1">
          <mxGeometry x="665" y="207.4" width="110" height="30" as="geometry" />
        </mxCell>
        <mxCell id="ezZVJ3xT8r4Y3w5elAx9-12" style="edgeStyle=orthogonalEdgeStyle;rounded=0;orthogonalLoop=1;jettySize=auto;html=1;" edge="1" parent="1" source="ezZVJ3xT8r4Y3w5elAx9-9">
          <mxGeometry relative="1" as="geometry">
            <mxPoint x="650" y="318.6999999999998" as="targetPoint" />
          </mxGeometry>
        </mxCell>
        <mxCell id="ezZVJ3xT8r4Y3w5elAx9-9" value="" style="shape=process;whiteSpace=wrap;html=1;backgroundOutline=1;" vertex="1" parent="1">
          <mxGeometry x="200" y="237.4" width="280" height="162.6" as="geometry" />
        </mxCell>
        <mxCell id="ezZVJ3xT8r4Y3w5elAx9-10" value="&lt;font style=&quot;font-size: 24px;&quot;&gt;Rest Api&lt;/font&gt;" style="text;html=1;align=center;verticalAlign=middle;whiteSpace=wrap;rounded=0;" vertex="1" parent="1">
          <mxGeometry x="280" y="272.4" width="130" height="80" as="geometry" />
        </mxCell>
      </root>
    </mxGraphModel>
  </diagram>
</mxfile>
